<svg width="32" height="32" viewBox="0 0 32 32" fill="none" xmlns="http://www.w3.org/2000/svg">
<rect width="32" height="32" rx="8" fill="url(#paint0_linear_60_200)"/>
<g clip-path="url(#clip0_60_200)">
<g filter="url(#filter0_d_60_200)">
<path d="M19.6567 11.6204C19.8394 11.4361 20.0876 11.3315 20.3471 11.3296C20.6066 11.3277 20.8563 11.4286 21.0416 11.6102C21.227 11.7919 21.3329 12.0395 21.3362 12.299C21.3395 12.5585 21.24 12.8088 21.0594 12.9951L15.8327 19.5291C15.7429 19.6258 15.6346 19.7034 15.5141 19.7572C15.3937 19.8111 15.2636 19.8402 15.1317 19.8427C14.9998 19.8451 14.8687 19.821 14.7463 19.7717C14.6239 19.7224 14.5127 19.649 14.4194 19.5558L10.954 16.0918C10.7699 15.9075 10.6665 15.6577 10.6665 15.3972C10.6666 15.1367 10.7701 14.8869 10.9544 14.7028C11.1386 14.5186 11.3885 14.4152 11.6489 14.4153C11.9094 14.4153 12.1592 14.5189 12.3434 14.7031L15.084 17.4444L19.6307 11.6511C19.639 11.6406 19.6479 11.6306 19.6574 11.6211L19.6567 11.6204Z" fill="white"/>
</g>
</g>
<defs>
<filter id="filter0_d_60_200" x="10.6665" y="11.3296" width="10.6698" height="10.5132" filterUnits="userSpaceOnUse" color-interpolation-filters="sRGB">
<feFlood flood-opacity="0" result="BackgroundImageFix"/>
<feColorMatrix in="SourceAlpha" type="matrix" values="0 0 0 0 0 0 0 0 0 0 0 0 0 0 0 0 0 0 127 0" result="hardAlpha"/>
<feOffset dy="2"/>
<feColorMatrix type="matrix" values="0 0 0 0 0 0 0 0 0 0 0 0 0 0 0 0 0 0 0.1 0"/>
<feBlend mode="normal" in2="BackgroundImageFix" result="effect1_dropShadow_60_200"/>
<feBlend mode="normal" in="SourceGraphic" in2="effect1_dropShadow_60_200" result="shape"/>
</filter>
<linearGradient id="paint0_linear_60_200" x1="16" y1="0" x2="16" y2="32" gradientUnits="userSpaceOnUse">
<stop stop-color="#89F09C"/>
<stop offset="1" stop-color="#3CC755"/>
</linearGradient>
<clipPath id="clip0_60_200">
<rect width="10.6667" height="10.6667" fill="white" transform="translate(10.6667 10.6665)"/>
</clipPath>
</defs>
</svg>
