<svg width="32" height="32" viewBox="0 0 32 32" fill="none" xmlns="http://www.w3.org/2000/svg">
<rect x="0.5" y="0.5" width="31" height="31" rx="6.5" fill="white" stroke="#F8F8F8"/>
<path d="M21.149 11.3561L21.1484 11.3556C20.8095 11.0259 20.4097 10.7637 19.9705 10.5834L19.9696 10.583C19.5139 10.3952 19.0249 10.299 18.5311 10.3001L18.5295 10.3001C17.8346 10.3001 17.1584 10.4888 16.5717 10.844L16.5717 10.844C16.4313 10.9289 16.2985 11.0219 16.173 11.1229L15.7341 11.4761L15.2953 11.1229C15.1698 11.0219 15.037 10.9289 14.8966 10.844L14.8966 10.844C14.3099 10.4888 13.6337 10.3001 12.9388 10.3001C12.4373 10.3001 11.9546 10.3951 11.4987 10.583L11.498 10.5833C11.057 10.7645 10.6606 11.0244 10.3197 11.3558L10.3187 11.3567L10.3187 11.3567C9.98111 11.6835 9.71174 12.0726 9.52557 12.5017L21.149 11.3561ZM21.149 11.3561C21.4865 11.6836 21.756 12.0729 21.9429 12.5022C22.1365 12.9487 22.2347 13.4204 22.2333 13.9065V13.9085C22.2333 14.3627 22.1399 14.8513 21.9418 15.3653L21.9412 15.3669M21.149 11.3561L21.9412 15.3669M12.3799 19.1132L12.38 19.1133C13.1291 19.7997 13.8773 20.3824 14.4475 20.7989C14.732 21.0067 14.9709 21.1722 15.1415 21.2875C15.2268 21.3451 15.2948 21.39 15.3428 21.4213C15.3936 21.4544 15.417 21.4691 15.4155 21.4682L15.4266 21.4749L15.4266 21.475L15.7333 21.6702L16.0401 21.475L16.0402 21.4749C16.0914 21.4424 17.5822 20.4903 19.0868 19.1132H12.3799ZM12.3799 19.1132C11.4753 18.2846 10.7634 17.482 10.255 16.73M12.3799 19.1132L10.255 16.73M21.9412 15.3669C21.7771 15.7955 21.5328 16.2543 21.2114 16.7304M21.9412 15.3669L21.2114 16.7304M10.255 16.73C9.93467 16.2555 9.69124 15.7962 9.52486 15.3653L10.255 16.73ZM21.2114 16.7304C20.7031 17.4822 19.9913 18.2846 19.087 19.113L21.2114 16.7304ZM9.23333 13.9085C9.23333 13.4209 9.33184 12.9484 9.52554 12.5018L9.52472 15.3649C9.32672 14.8511 9.23333 14.3626 9.23333 13.9085Z" stroke="#ECECEC" stroke-width="1.4"/>
</svg>
